<svg xmlns="http://www.w3.org/2000/svg" viewBox="0 -10 120 40" fill="none">
  <!-- Asterisk 1 -->
  <g transform="translate(15, 10)">
    <circle cx="0" cy="0" r="1" fill="white"/>
    <path d="M 0 -8 V 8" stroke="white" stroke-width="2"/>
    <path d="M -8 0 H 8" stroke="white" stroke-width="2"/>
    <path d="M -6 -6 L 6 6" stroke="white" stroke-width="2"/>
    <path d="M -6 6 L 6 -6" stroke="white" stroke-width="2"/>
  </g>

  <!-- Asterisk 2 -->
  <g transform="translate(45, 10)">
    <circle cx="0" cy="0" r="1" fill="white"/>
    <path d="M 0 -8 V 8" stroke="white" stroke-width="2"/>
    <path d="M -8 0 H 8" stroke="white" stroke-width="2"/>
    <path d="M -6 -6 L 6 6" stroke="white" stroke-width="2"/>
    <path d="M -6 6 L 6 -6" stroke="white" stroke-width="2"/>
  </g>

  <!-- Asterisk 3 -->
  <g transform="translate(75, 10)">
    <circle cx="0" cy="0" r="1" fill="white"/>
    <path d="M 0 -8 V 8" stroke="white" stroke-width="2"/>
    <path d="M -8 0 H 8" stroke="white" stroke-width="2"/>
    <path d="M -6 -6 L 6 6" stroke="white" stroke-width="2"/>
    <path d="M -6 6 L 6 -6" stroke="white" stroke-width="2"/>
  </g>

  <!-- Asterisk 4 -->
  <g transform="translate(105, 10)">
    <circle cx="0" cy="0" r="1" fill="white"/>
    <path d="M 0 -8 V 8" stroke="white" stroke-width="2"/>
    <path d="M -8 0 H 8" stroke="white" stroke-width="2"/>
    <path d="M -6 -6 L 6 6" stroke="white" stroke-width="2"/>
    <path d="M -6 6 L 6 -6" stroke="white" stroke-width="2"/>
  </g>
</svg>
